# xmcd
#
# Track frame offsets: 
#        150
#        12659
#        25711
#        42474
#        61105
#        75900
#        89180
#        104014
#        123176
#        145380
#        155273
#        171118
#        189110
#        204791
#        226507
#        238935
#        250216
#        264455
#
# Disc length: 3850 seconds
#
# Revision: 1
# Processed by: cddbd v1.5.2PL0 Copyright (c) Steve Scherf et al.
# Submitted via: ExactAudioCopyFreeDBPlugin 1.0
#
DISCID=e40f0812
DTITLE=Jeff Zima - Live in Gaillac - You Are Here
DYEAR=2002
DGENRE=Blues
TTITLE0=Taking My Time
TTITLE1=Hold to Your Money
TTITLE2=Diddy Wah Diddy
TTITLE3=Pigmeat Papa
TTITLE4=Keep Your Hands off Her
TTITLE5=Cedar St. Stomp
TTITLE6=Everyday I Have the Blues
TTITLE7=Decatur St. Breakdown
TTITLE8=Shake Yer Boogie
TTITLE9=Better By and By
TTITLE10=Black Ddrawers
TTITLE11=Sloppy Drunk
TTITLE12=Mambo Chutney
TTITLE13=My Eyes (Keep Me in Trouble)
TTITLE14=Sentimental Journey
TTITLE15=What a Life
TTITLE16=Why Don't You Come Home Bill Bailey?
TTITLE17=Short, Fat and Ugly
EXTD=YEAR: 2002
EXTT0=
EXTT1=
EXTT2=
EXTT3=
EXTT4=
EXTT5=
EXTT6=
EXTT7=
EXTT8=
EXTT9=
EXTT10=
EXTT11=
EXTT12=
EXTT13=
EXTT14=
EXTT15=
EXTT16=
EXTT17=
PLAYORDER=
